<svg version="1.1" id="Capa_1" xmlns="http://www.w3.org/2000/svg" xmlns:xlink="http://www.w3.org/1999/xlink" x="0px" y="0px" viewBox="0 0 512.28 512.28" style="enable-background:new 0 0 512.28 512.28;" xml:space="preserve">
    <g>
        <g>
            <path d="M508.401,180.988L260.934,1.788c-2.327-2.327-6.206-2.327-9.309,0L3.383,181.764c-3.103,2.327-3.879,5.43-3.103,8.533
                        s3.879,5.43,7.758,5.43h7.758v51.976c0,4.655,3.103,7.758,7.758,7.758h10.085v249.018c0,4.655,3.103,7.758,7.758,7.758
                        c53.527,0,381.673,0,428.994,0c4.655,0,7.758-3.103,7.758-7.758c0-99.297,0-148.945,0-249.018h10.861
                        c4.655,0,7.758-3.103,7.758-7.758v-51.976h7.758c4.655,0,7.758-3.103,7.758-7.758C512.28,184.867,510.728,181.764,508.401,180.988
                        z M256.28,17.304l224.194,162.133H32.086L256.28,17.304z M346.268,277.958v218.764H49.153V255.461h413.479v14.739H354.025
                        C349.371,270.201,346.268,273.304,346.268,277.958z M361.783,285.716h100.848v48.097H361.783V285.716z M463.407,496.722H362.559
                        V349.328h100.849V496.722z M481.25,239.946c-44.218,0-396.412,0-449.939,0v-44.218H481.25V239.946z"></path>
        </g>
    </g>
    <g>
        <g>
            <path d="M256.28,59.194c-30.255,0-55.079,24.824-55.079,55.079c0,30.255,24.824,55.079,55.079,55.079
                        c30.255,0,55.079-24.824,55.079-55.079C310.583,83.243,286.534,59.194,256.28,59.194z M256.28,153.061
                        c-21.721,0-39.564-17.842-39.564-39.564c0-21.721,17.842-39.564,39.564-39.564s39.564,17.842,39.564,39.564
                        C295.068,135.219,278.001,153.061,256.28,153.061z"></path>
        </g>
    </g>
    <g>
        <g>
            <path d="M318.34,281.837H74.753c-3.879,0-7.758,3.103-7.758,7.758v175.321c0,3.879,3.103,7.758,7.758,7.758H318.34
                        c4.655,0,7.758-3.879,7.758-7.758V289.594C326.098,284.94,322.219,281.837,318.34,281.837z M297.395,297.352l-100.849,85.333
                        L95.698,297.352H297.395z M82.51,305.885l80.679,69.042L82.51,447.849V305.885z M94.922,457.158l79.903-72.146l17.067,13.964
                        c1.552,1.552,3.103,1.552,4.655,1.552s3.879-0.776,4.655-1.552l16.291-13.964l79.903,72.146H94.922z M310.583,447.073
                        l-80.679-72.921l80.679-68.267V447.073z"></path>
        </g>
    </g>
    <g>
        <g>
            <path d="M385.831,380.358c-4.655,0-7.758,3.103-7.758,7.758v28.703c0,4.655,3.103,7.758,7.758,7.758s7.758-3.103,7.758-7.758
                        v-28.703C393.589,384.237,389.71,380.358,385.831,380.358z"></path>
        </g>
    </g>

</svg>